<svg xmlns="http://www.w3.org/2000/svg" viewBox="0 0 400 400">
  <defs>
    <radialGradient id="p1" cx="0.35" cy="0.35" r="0.9">
      <stop offset="0" stop-color="#ff6b5e"/>
      <stop offset="0.55" stop-color="#e01b22"/>
      <stop offset="1" stop-color="#8f0d12"/>
    </radialGradient>
    <linearGradient id="stem1" x1="0" y1="0" x2="0" y2="1">
      <stop offset="0" stop-color="#7cc93f"/>
      <stop offset="1" stop-color="#3f7d1c"/>
    </linearGradient>
  </defs>
  <!-- curved chili pepper -->
  <path d="M110 120
           C90 200 110 290 190 330
           C270 370 340 330 355 285
           C360 268 345 262 330 272
           C290 298 240 300 205 265
           C160 220 150 170 160 120 Z"
        fill="url(#p1)"/>
  <path d="M125 135 C112 200 128 265 185 302" fill="none" stroke="#ffb3ac" stroke-opacity="0.7" stroke-width="14" stroke-linecap="round"/>
  <path d="M158 118 C150 92 158 70 178 56 C160 88 172 104 176 116 Z" fill="url(#stem1)"/>
  <ellipse cx="136" cy="118" rx="34" ry="16" fill="#4f9a24" transform="rotate(-12 136 118)"/>
</svg>
